# xmcd
#
# Track frame offsets:
#	150
#	20388
#	36302
#	48727
#	63928
#	81176
#	94094
#	113205
#	130324
#	151357
#	167214
#	190663
#	208824
#	229136
#
# Disc length: 3392 seconds
#
# Revision: 1
# Processed by: cddbd v1.5.1PL2 Copyright (c) Steve Scherf et al.
# Submitted via: EasyCDDAExtractor 9.1.3.1
#
DISCID=bf0d3e0e
DTITLE=Steve Earle - Live At Montreux 2005
DYEAR=2006
DGENRE=Alternative Country - Singer-Songwriter
TTITLE0=Jerusalem
TTITLE1=What's A Simple Man To Do
TTITLE2=The Devil's Right Hand
TTITLE3=Warrior
TTITLE4=Rich Man's War
TTITLE5=South Nashville Blues
TTITLE6=Cckmp
TTITLE7=Dixieland
TTITLE8=Ellis Unit One
TTITLE9=Condi Condi
TTITLE10=The Mountain
TTITLE11=The Revolution Starts Now
TTITLE12=Copperhead Road
TTITLE13=Christmas In Washington
EXTD=
EXTT0=
EXTT1=
EXTT2=
EXTT3=
EXTT4=
EXTT5=
EXTT6=
EXTT7=
EXTT8=
EXTT9=
EXTT10=
EXTT11=
EXTT12=
EXTT13=
PLAYORDER=
